<?xml version="1.0" encoding="utf-8"?>
<!-- Generator: Adobe Illustrator 19.0.0, SVG Export Plug-In . SVG Version: 6.00 Build 0)  -->
<svg version="1.1" id="Layer_1" xmlns="http://www.w3.org/2000/svg" xmlns:xlink="http://www.w3.org/1999/xlink" x="0px" y="0px"
	 viewBox="-47 146.3 264.3 69.7" style="enable-background:new -47 146.3 264.3 69.7;" xml:space="preserve">
<style type="text/css">
	.st0{fill:#FFFFFF;}
	.st1{fill:#F90000;}
</style>
<g id="XMLID_113_">
	<path id="XMLID_114_" class="st0" d="M-47,165.5l19.1-19.2V216H-47V165.5z M-30.6,176.6l30.4-30.3h24.3L-7,177.6l14.1,14.1v24.2
		l-25.8-25.6L-30.6,202V176.6z"/>
	<path id="XMLID_117_" class="st0" d="M12.1,165.5l19.1-19.2V216H12.1V165.5z"/>
	<path id="XMLID_119_" class="st0" d="M77.2,198.5V216h-8.7c-9.3,0-17.2-3.3-23.5-10s-9.5-14.7-9.5-24.2c0-9.8,3.7-18.2,11.1-25.1
		c7.4-7,16.2-10.4,26.4-10.4h26.4l-17.8,18h-9.3c-4.8,0-9.1,1.7-12.8,5.1c-3.7,3.4-5.6,7.5-5.6,12.4c0,4.5,1.5,8.4,4.5,11.7
		c3,3.3,6.7,5,11.2,5H77.2z"/>
	<path id="XMLID_121_" class="st0" d="M88.3,165.5l19.1-19.2V216H88.3L88.3,165.5L88.3,165.5z M104.7,176.6l30.4-30.3h24.3
		l-31.1,31.3l14.1,14.1v24.2l-25.8-25.6l-11.9,11.8L104.7,176.6L104.7,176.6z"/>
	<path id="XMLID_124_" class="st1" d="M165.6,146.3h51.7l-52.2,52.4h40V216h-57.6v-22.8l28.3-29h-28L165.6,146.3z"/>
</g>
</svg>
